<svg xmlns="http://www.w3.org/2000/svg" width="1518.7" height="892" viewBox="0 0 1518.7 892">
  <g id="white_Logo" data-name="white Logo" transform="translate(-0.6 893)">
    <path id="Path_2100" data-name="Path 2100" d="M791.7-883.8c-3,5.1-24,41.5-46.7,80.8s-42.1,72.9-43.1,74.6l-1.9,3.1,38.6,66.9c21.3,36.8,38.9,67.1,39.1,67.4s.9-.3,1.4-1.3c1.5-2.6,2.2-2.1,4.9,2.8,1.4,2.5,2.7,4.5,3,4.5s4.5-6.8,9.3-15l8.9-14.9L775-667l-30.1-52.2,39.3-68.1,39.4-68.2H976.4l37.2,64.4,37.2,64.4-2.7,4.6c-4.5,7.6-14.5,26.5-14.7,27.7-.2,1.1-54.7,95.9-59,102.6L972-588l-50.1.2-50.2.3-8.3,14.7L855.1-558h6c3.2,0,5.9.3,5.9.8a8.743,8.743,0,0,1-1.6,3l-1.5,2.2,68.1-.2,68.1-.3,39.3-68,39.2-68h207.8l58,100.7c57.4,99.6,58.1,100.7,61.2,100.8,2.5,0,3.4.6,4.4,3l1.2,3h11.7a153.709,153.709,0,0,1,18.8,1.3l7.2,1.3-3.2-5.6c-1.8-3.1-33.1-57.5-69.7-120.8-62.4-108.1-66.7-115.2-69.2-115.2-1.9,0-3.2-.8-4.5-3l-1.7-3H1092.5L1046-806.5c-43.5-75.3-46.7-80.5-49.2-80.5-1.9,0-3.2-.8-4.5-3l-1.7-3H797.1Z" fill="#fff"/>
    <path id="Path_2101" data-name="Path 2101" d="M814.2-602.8c-39.2,67.7-71,123.3-70.9,123.5a42.607,42.607,0,0,0,6.6-1.8c3.4-1.2,6.4-1.9,6.7-1.7.2.3-.8,2.7-2.3,5.3-2.4,4.3-2.5,4.8-.7,4.1,6.4-2.5,20.5-5.9,28.9-6.9l9.9-1.3L852.1-585l59.8-103.5,53-.3,53-.2,8-14.9c4.5-8.1,8.1-15.1,8.1-15.5,0-.3-2.5-.6-5.6-.6-4.6,0-5.5-.3-5-1.5,1.9-4.8,6.9-4.5-68.2-4.5H885.3Z" fill="#fff"/>
    <path id="Path_2102" data-name="Path 2102" d="M334-407v145h4.5c4.3,0,4.5.1,4.5,3v3h46V-546h-4.5c-4.3,0-4.5-.1-4.5-3v-3H334Z" fill="#fff"/>
    <path id="Path_2103" data-name="Path 2103" d="M126.5-538.3a170.267,170.267,0,0,0-31.6,6.4c-38.6,12.5-73.2,46.5-86.8,85.2C2.4-430.5.7-419.5.6-400c0,25.5,3.3,40.8,13.3,61.5,11.3,23.3,28,41.5,53.5,58.6,28.5,19.1,48.4,25.4,81.1,25.3,26-.1,41.3-3.6,62.5-14.5,24-12.4,46.1-35.1,59.9-61.9,11.1-21.6,15-36.7,15.8-61.7l.6-17.2-4.4-.3c-4-.3-4.4-.6-4.7-3.1l-.3-2.7H149v45h4.5c4.3,0,4.5.1,4.5,3v3l33.4.2,33.5.3-4,8a93.022,93.022,0,0,1-46.1,43.3c-23.2,10-53.1,9.4-75.6-1.4-13.6-6.6-30.6-25.4-37.4-41.6-11.7-27.9-9.6-60.4,5.5-85,8.8-14.4,24.8-29.3,38.7-36.3,14.6-7.3,28.1-10,46.7-9.2,20.5.8,36.8,6.7,48.3,17.4,3.3,3,6.4,5.3,6.7,4.9.4-.3,2.4,1,4.5,3.1l3.8,3.7,16.1-15.9,16-16-7.2-6.8c-13.1-12.3-35.1-26.7-49.9-32.6A147.368,147.368,0,0,0,126.5-538.3Z" fill="#fff"/>
    <path id="Path_2104" data-name="Path 2104" d="M433-464.9c0,.6,17.6,44.2,39.2,96.7l39.2,95.6-2.9,8.1c-7,20.1-15.6,34.1-24.3,39.6-7.3,4.6-17,3.7-25.5-2.3-1.6-1.1-3-1.9-3.2-1.7s-1.5,7.1-2.9,15.4c-1.5,8.2-2.8,15.9-3.1,17-.4,2.1-.7,1.9,15,11.8,16.9,10.5,38.4,11.5,53.5,2.4,9.4-5.7,20.5-18.9,29.3-34.7,6.4-11.6,11.3-24,52.7-132.5,22.5-58.9,41.2-107.8,41.5-108.8.6-1.5,0-1.7-5-1.7-4.2,0-5.6-.3-5.2-1.3,2.1-5.1,4.1-4.8-22.8-4.5l-24.8.3-22.5,60.2c-12.4,33.2-22.8,60.3-23.1,60.3s-11.3-25.8-24.3-57.3l-23.6-57.2-3.5-.3c-2.9-.3-3.7-.9-4.6-3.3l-1-2.9h-24C439.9-466,433-465.7,433-464.9Z" fill="#fff"/>
    <path id="Path_2105" data-name="Path 2105" d="M774.8-464.9c-10.4,1.5-18.2,4-28.4,8.9-21.7,10.5-38.7,28.7-48.7,51.9-4.5,10.5-6.8,21.4-7.4,35.6-1.8,41.2,13.3,70.8,47.9,93.8,18.8,12.6,33.2,18,52.5,19.6,26.4,2.3,50.6-4.2,70-18.8,13.4-10.1,13.3-8.4,1.3-20.6-5.7-5.8-11.1-10.5-12-10.5s-2.9-1.4-4.5-3a14.634,14.634,0,0,0-3.4-3c-.4,0-3.1,2-6.1,4.5a72.554,72.554,0,0,1-25.5,13c-7.6,1.9-26,1.9-34.3,0-9.5-2.3-15.3-5.7-22.2-13.2-10.7-11.8-16.4-26.3-17.7-45.4-2.2-34.8,15.6-63.9,45.1-73.6,6.9-2.2,9.9-2.6,20.1-2.7,16.1,0,28.6,3.4,36.4,10,1.9,1.5,4.1,2.9,4.9,3a14.835,14.835,0,0,1,4.6,3.3l3.2,3.1,10.8-10.9,10.8-10.8-4.9-4.3c-6.2-5.4-23.1-16.9-30.8-20.8C819.4-464.4,795.4-467.9,774.8-464.9Z" fill="#fff"/>
    <path id="Path_2106" data-name="Path 2106" d="M1256.5-464.9a88.166,88.166,0,0,0-38.2,15.5,61.015,61.015,0,0,1-6.7,4.4c-.3,0-.6-3.1-.6-6.9v-7l-4.2-.3c-3.9-.3-4.3-.6-4.6-3.1l-.3-2.7H1168v203h4.5c4.3,0,4.5.1,4.5,3v3h33.8l.4-57.8c.4-55.5.5-58,2.6-65.7,3.8-13.8,8.5-21.9,18.1-31.5,9-8.9,15.6-13,25.2-15.5,6-1.6,18.4-1.9,24.2-.6l3.7.9V-460h-4.5c-4.3,0-4.5-.1-4.5-3v-3l-6.7.1A125.509,125.509,0,0,0,1256.5-464.9Z" fill="#fff"/>
    <path id="Path_2107" data-name="Path 2107" d="M1394.5-465c-7.8,1.2-21.7,5.5-28,8.7-20.7,10.5-40.2,31.9-48.4,53.3-5.1,13.2-6.6,22.6-6.5,41,.1,14.5.4,17.7,2.8,26.5,6.9,26.2,21,45.1,46.5,62,18.4,12.2,30.1,16.6,49.5,18.4a98.217,98.217,0,0,0,81.2-30.2,99.642,99.642,0,0,0,11.7-14.8l3.7-6.4-5-1.9c-2.9-1.1-4.9-2.4-4.7-3,.3-.7-5.5-3.5-14.6-7.1l-15.1-5.8-2,2.9c-1.1,1.6-5.7,6.5-10.1,11-6.3,6.3-9.8,9-16.5,12.3-13.9,6.8-25.8,8.5-40.5,5.6-14-2.7-22.4-8-31.1-19.7-4.2-5.7-9.6-17.4-10.9-23.6l-.7-3.2h163.5l-.6-11.3c-1.4-27.5-9.6-52.7-23.9-73.4-6.3-9.2-14-16.4-25.7-24.3-19-12.7-32-16.9-54.6-17.5C1406.8-465.7,1397.8-465.5,1394.5-465Zm40.8,36.6a58.185,58.185,0,0,1,10.7,3.9c6.5,3.3,16.9,14.8,21.3,23.7,3.8,7.4,7.7,20.8,7.7,26v2.8H1354.9l.7-3.8c4.6-25.2,23.5-46.2,47.4-52.6C1410.5-430.4,1427.6-430.4,1435.3-428.4Z" fill="#fff"/>
    <path id="Path_2108" data-name="Path 2108" d="M907.3-404.3c.4,56.4.6,61.6,2.5,71.8,4,21.2,9.8,33.9,20.4,45.1,12.1,12.7,33.9,26.2,48.3,29.9a104.366,104.366,0,0,0,32.5,2.4,77.129,77.129,0,0,0,40.4-15.8l6.6-5V-262h4.5c4.3,0,4.5.1,4.5,3v3h34V-459h-4.5c-4.3,0-4.5-.1-4.5-3v-3h-33.9l-.3,60.7-.3,60.8-2.7,8c-6.8,19.9-20.5,34.7-37.7,40.5-8.2,2.7-21.9,3.7-30.3,2.1-13.5-2.6-20.6-8.4-27.6-22.6-7.4-14.8-8.2-24-8.2-89.2V-459h-4.5c-4.3,0-4.5-.1-4.5-3v-3H906.8Z" fill="#fff"/>
    <path id="Path_2109" data-name="Path 2109" d="M747.9-244.3c.6,1,31.5,54.7,68.9,119.3C875-24.1,885-7.5,887.1-7.2a10.1,10.1,0,0,1,5,3.3L894.6-1l207.8-.2,207.7-.3,67.5-116.8c37.1-64.3,67.4-117,67.4-117.2a14.329,14.329,0,0,0-3.7.6,35.575,35.575,0,0,1-6.6.9h-2.9l2.1-3.6a22.968,22.968,0,0,0,2.1-3.9,23.415,23.415,0,0,0-4.2.7c-2.4.6-10.8,1.3-18.7,1.6l-14.4.7-56.6,98.1c-31.2,53.9-57.4,99.2-58.4,100.7L1282-37l-186.7-.2-186.6-.3L852.4-135c-54-93.6-56.4-97.5-59.4-97.8a5.238,5.238,0,0,1-4.5-3.1c-1.3-2.7-1.9-2.9-11.8-4a166.21,166.21,0,0,1-19.6-3.6C746.1-246.5,746.7-246.4,747.9-244.3Z" fill="#fff"/>
  </g>
</svg>
